HIERARCHY
ROOT joint_Root
{
	OFFSET 0.0 0.0 0.0
	CHANNELS 6 Xposition Yposition Zposition Zrotation Xrotation Yrotation 
	JOINT Hips
	{
		OFFSET -0.726466 93.3139 -2.00062
		CHANNELS 6 Xposition Yposition Zposition Zrotation Xrotation Yrotation 
		JOINT Spine
		{
			OFFSET 15.7357 0.0 0.0
			CHANNELS 6 Xposition Yposition Zposition Zrotation Xrotation Yrotation 
			JOINT Chest
			{
				OFFSET 8.98455 -0.406207 0.0
				CHANNELS 6 Xposition Yposition Zposition Zrotation Xrotation Yrotation 
				JOINT Neck
				{
					OFFSET 16.3773 0.0 0.0
					CHANNELS 6 Xposition Yposition Zposition Zrotation Xrotation Yrotation 
					JOINT Head
					{
						OFFSET 6.45672 0.0 0.0
						CHANNELS 6 Xposition Yposition Zposition Zrotation Xrotation Yrotation 
						End Site
						{
							OFFSET 0.0 0.0 0.0
						}
					}
				}
				JOINT Shoulder_L
				{
					OFFSET 12.9942 -0.242716 4.98039
					CHANNELS 6 Xposition Yposition Zposition Zrotation Xrotation Yrotation 
					JOINT UpperArm_L
					{
						OFFSET 5.34809 0.0 0.0
						CHANNELS 6 Xposition Yposition Zposition Zrotation Xrotation Yrotation 
						JOINT LowerArm_L
						{
							OFFSET 24.3286 1.87007e-05 0.0
							CHANNELS 6 Xposition Yposition Zposition Zrotation Xrotation Yrotation 
							JOINT Hand_L
							{
								OFFSET 22.2916 0.0 0.0
								CHANNELS 6 Xposition Yposition Zposition Zrotation Xrotation Yrotation 
								End Site
								{
									OFFSET 0.0 0.0 0.0
								}
							}
						}
					}
				}
				JOINT Shoulder_R
				{
					OFFSET 12.9945 -0.242716 -4.98039
					CHANNELS 6 Xposition Yposition Zposition Zrotation Xrotation Yrotation 
					JOINT UpperArm_R
					{
						OFFSET -5.34813 0.0 0.0
						CHANNELS 6 Xposition Yposition Zposition Zrotation Xrotation Yrotation 
						JOINT LowerArm_R
						{
							OFFSET -24.3289 0.000322201 0.0
							CHANNELS 6 Xposition Yposition Zposition Zrotation Xrotation Yrotation 
							JOINT Hand_R
							{
								OFFSET -22.2915 -0.000108084 0.0
								CHANNELS 6 Xposition Yposition Zposition Zrotation Xrotation Yrotation 
								End Site
								{
									OFFSET 0.0 0.0 0.0
								}
							}
						}
					}
				}
			}
		}
		JOINT UpperLeg_L
		{
			OFFSET -2.19248 -6.46944 0.0
			CHANNELS 6 Xposition Yposition Zposition Zrotation Xrotation Yrotation 
			JOINT LowerLeg_L
			{
				OFFSET 39.0811 0.0 -1.23785e-05
				CHANNELS 6 Xposition Yposition Zposition Zrotation Xrotation Yrotation 
				JOINT Foot_L
				{
					OFFSET 40.9854 0.0 -1.26872e-05
					CHANNELS 6 Xposition Yposition Zposition Zrotation Xrotation Yrotation 
					JOINT Toes_L
					{
						OFFSET 11.7543 0.0 0.0
						CHANNELS 6 Xposition Yposition Zposition Zrotation Xrotation Yrotation 
						End Site
						{
							OFFSET 0.0 0.0 0.0
						}
					}
				}
			}
		}
		JOINT UpperLeg_R
		{
			OFFSET -2.19251 6.46944 0.0
			CHANNELS 6 Xposition Yposition Zposition Zrotation Xrotation Yrotation 
			JOINT LowerLeg_R
			{
				OFFSET -39.0811 -0.00228153 -0.0401928
				CHANNELS 6 Xposition Yposition Zposition Zrotation Xrotation Yrotation 
				JOINT Foot_R
				{
					OFFSET -40.9854 0.0 0.0
					CHANNELS 6 Xposition Yposition Zposition Zrotation Xrotation Yrotation 
					JOINT Toes_R
					{
						OFFSET -11.7543 0.0 0.0
						CHANNELS 6 Xposition Yposition Zposition Zrotation Xrotation Yrotation 
						End Site
						{
							OFFSET 0.0 0.0 0.0
						}
					}
				}
			}
		}
	}
}
MOTION
Frames:	6
Frame Time:	0.0333333
0.000000 0.000000 0.000000 0.000000 0.000000 -0.000000 -1.286740 92.850300 -0.499276 89.023200 -2.392510 2.477410 15.735700 0.000005 -0.000001 93.295000 86.213200 -93.083000 8.984550 -0.406207 -0.000000 -0.205715 0.420463 0.424614 16.377300 -0.000001 -0.000001 2.576780 -2.500650 2.297220 6.456720 -0.000001 -0.000000 7.084500 -2.077040 -3.993710 12.994200 -0.242716 4.980390 -90.846500 2.693190 -72.545100 5.348090 -0.000007 -0.000001 -67.319100 35.085400 -13.148100 24.328600 0.000019 0.000005 5.505490 12.891800 -23.363200 22.291600 -0.000001 0.000005 2.321530 5.484170 -5.909030 12.994500 -0.242716 -4.980390 87.590900 7.911420 -73.003500 -5.348130 -0.000001 -0.000004 -64.494600 42.104500 -11.187100 -24.328900 0.000322 -0.000009 3.160410 8.833820 -19.782000 -22.291500 -0.000108 -0.000004 6.729480 5.363790 -1.795540 -2.192480 -6.469440 -0.000000 -176.350000 -7.606090 -1.488990 39.081100 -0.000007 -0.000012 -0.062615 0.198357 17.519100 40.985400 -0.000006 -0.000013 -0.500090 4.125320 -63.679200 11.754300 -0.000000 0.000003 -0.000002 -0.000026 -16.578500 -2.192510 6.469440 -0.000001 179.742000 9.930600 -179.975000 -39.081100 -0.002282 -0.040193 -0.053122 0.207107 15.247000 -40.985400 0.000008 0.000006 1.769080 7.405460 -63.205500 -11.754300 -0.000006 -0.000006 -0.005783 -0.068856 -19.375300
0.000000 0.000000 0.000000 0.000000 0.000000 -0.000000 -1.314110 92.859100 -0.548659 89.039400 -2.424180 2.450820 15.735700 0.000005 -0.000001 93.759400 86.235600 -93.538100 8.984550 -0.406207 -0.000000 -0.254230 0.478043 0.443548 16.377300 -0.000001 -0.000001 2.538330 -2.533640 2.303160 6.456720 -0.000001 -0.000000 7.078810 -2.271260 -4.109810 12.994200 -0.242716 4.980390 -90.999700 3.099950 -72.117500 5.348090 -0.000007 -0.000001 -65.662900 32.765200 -13.774800 24.328600 0.000019 0.000005 6.551010 12.780800 -27.439200 22.291600 -0.000001 0.000005 2.850410 5.501290 -6.583010 12.994500 -0.242716 -4.980390 87.619800 7.806200 -72.984400 -5.348130 -0.000001 -0.000004 -64.775300 41.754600 -11.014500 -24.328900 0.000322 -0.000009 3.154620 8.801680 -19.814600 -22.291500 -0.000108 -0.000004 6.738920 5.362980 -1.770460 -2.192480 -6.469440 -0.000000 -176.365000 -7.483940 -1.500910 39.081100 -0.000007 -0.000012 -0.061846 0.196900 17.437200 40.985400 -0.000006 -0.000013 -0.538697 4.030470 -63.613400 11.754300 -0.000000 0.000003 -0.000003 -0.000037 -16.579000 -2.192510 6.469440 -0.000001 179.756000 9.983350 179.976000 -39.081100 -0.002282 -0.040193 -0.052240 0.204246 15.220100 -40.985400 0.000008 0.000006 1.796850 7.435260 -63.161600 -11.754300 -0.000006 -0.000006 -0.005797 -0.068977 -19.380200
0.000000 0.000000 0.000000 0.000000 0.000000 -0.000000 -1.368500 92.863500 -0.587907 89.015100 -2.399030 2.448140 15.735700 0.000005 -0.000001 95.307300 86.237200 -95.084300 8.984550 -0.406207 -0.000000 -0.273859 0.680308 0.447331 16.377300 -0.000001 -0.000001 2.569460 -2.568570 2.287490 6.456720 -0.000001 -0.000000 7.079670 -2.674010 -4.050050 12.994200 -0.242716 4.980390 -91.110500 3.343050 -71.613700 5.348090 -0.000007 -0.000001 -63.461500 28.950100 -15.151400 24.328600 0.000019 0.000005 5.835400 8.967020 -33.270900 22.291600 -0.000001 0.000005 4.522270 5.520200 -7.364980 12.994500 -0.242716 -4.980390 87.653400 7.725900 -73.047200 -5.348130 -0.000001 -0.000004 -65.173900 41.351100 -10.594600 -24.328900 0.000322 -0.000009 3.142560 8.684890 -19.987300 -22.291500 -0.000108 -0.000004 6.692100 5.361400 -1.722320 -2.192480 -6.469440 -0.000000 -176.315000 -7.486500 -1.543600 39.081100 -0.000007 -0.000012 -0.061368 0.195248 17.448300 40.985400 -0.000006 -0.000013 -0.572959 4.008040 -63.579400 11.754300 -0.000000 0.000003 -0.000003 -0.000044 -16.579200 -2.192510 6.469440 -0.000001 179.820000 10.040500 179.980000 -39.081100 -0.002282 -0.040193 -0.051584 0.202545 15.169300 -40.985400 0.000008 0.000006 1.839300 7.461440 -63.123700 -11.754300 -0.000006 -0.000006 -0.005947 -0.070350 -19.436200
0.000000 0.000000 0.000000 0.000000 0.000000 -0.000000 -1.455090 92.871300 -0.662260 89.001000 -2.262970 2.464940 15.735700 0.000005 -0.000001 96.888900 86.235500 -96.677500 8.984550 -0.406207 -0.000000 -0.292841 0.888005 0.424663 16.377300 -0.000001 -0.000001 2.737340 -2.548560 2.184400 6.456720 -0.000001 -0.000000 7.162320 -3.065420 -3.853700 12.994200 -0.242716 4.980390 -91.164300 3.416150 -71.167000 5.348090 -0.000007 -0.000001 -60.835600 24.156100 -17.536200 24.328600 0.000019 0.000005 5.091450 5.913200 -40.863200 22.291600 -0.000001 0.000005 6.905080 5.543770 -8.405760 12.994500 -0.242716 -4.980390 87.700000 7.656370 -73.223800 -5.348130 -0.000001 -0.000004 -65.402600 41.401500 -10.305800 -24.328900 0.000322 -0.000009 3.164750 8.786340 -19.905100 -22.291500 -0.000108 -0.000004 6.629250 5.364020 -1.802390 -2.192480 -6.469440 -0.000000 -176.245000 -7.319140 -1.592960 39.081100 -0.000007 -0.000012 -0.061724 0.196583 17.431400 40.985400 -0.000006 -0.000013 -0.632865 4.044250 -63.498600 11.754300 -0.000000 0.000003 -0.000001 -0.000016 -16.578100 -2.192510 6.469440 -0.000001 179.898000 10.177100 179.984000 -39.081100 -0.002282 -0.040193 -0.051078 0.201415 15.116400 -40.985400 0.000008 0.000006 1.897930 7.430710 -63.067700 -11.754300 -0.000006 -0.000006 -0.005966 -0.070525 -19.443300
0.000000 0.000000 0.000000 0.000000 0.000000 -0.000000 -1.552170 92.877200 -0.731098 89.052900 -2.024770 2.550580 15.735700 0.000005 -0.000001 98.211600 86.219100 -98.037500 8.984550 -0.406207 -0.000000 -0.283187 1.067580 0.350716 16.377300 -0.000001 -0.000001 2.994110 -2.565940 2.087030 6.456720 -0.000001 -0.000000 7.244280 -3.377240 -3.649100 12.994200 -0.242716 4.980390 -91.127100 3.256970 -70.900200 5.348090 -0.000007 -0.000001 -58.214700 18.605300 -20.723000 24.328600 0.000019 0.000005 5.944370 4.977410 -50.194700 22.291600 -0.000001 0.000005 9.103090 5.563770 -9.363250 12.994500 -0.242716 -4.980390 87.740100 7.599200 -73.383900 -5.348130 -0.000001 -0.000004 -65.393400 41.851300 -10.278300 -24.328900 0.000322 -0.000009 3.195140 9.010110 -19.624800 -22.291500 -0.000108 -0.000004 6.494070 5.363950 -1.800260 -2.192480 -6.469440 -0.000000 -176.224000 -7.191720 -1.543740 39.081100 -0.000007 -0.000012 -0.061618 0.197168 17.354600 40.985400 -0.000006 -0.000013 -0.687060 4.148230 -63.390600 11.754300 -0.000000 0.000003 -0.000001 -0.000016 -16.578100 -2.192510 6.469440 -0.000001 179.895000 10.345500 -179.973000 -39.081100 -0.002282 -0.040193 -0.050872 0.200267 15.144200 -40.985400 0.000008 0.000006 1.963890 7.404780 -63.065800 -11.754300 -0.000006 -0.000006 -0.005926 -0.070161 -19.428500
0.000000 0.000000 0.000000 0.000000 0.000000 -0.000000 -1.670910 92.876800 -0.797563 89.106900 -1.717380 2.624760 15.735700 0.000005 -0.000001 98.934300 86.220700 -98.793700 8.984550 -0.406207 -0.000000 -0.300368 1.163720 0.284051 16.377300 -0.000001 -0.000001 3.262820 -2.585070 1.965430 6.456720 -0.000001 -0.000000 7.345670 -3.613530 -3.475690 12.994200 -0.242716 4.980390 -90.971300 2.800060 -70.860600 5.348090 -0.000007 -0.000001 -56.090000 12.378900 -24.436300 24.328600 0.000019 0.000005 6.194380 3.569330 -60.168100 22.291600 -0.000001 0.000005 11.004000 5.582280 -10.325400 12.994500 -0.242716 -4.980390 87.762400 7.546420 -73.431200 -5.348130 -0.000001 -0.000004 -65.307100 42.156100 -10.390500 -24.328900 0.000322 -0.000009 3.197010 9.187290 -19.287800 -22.291500 -0.000108 -0.000004 6.518600 5.363950 -1.800190 -2.192480 -6.469440 -0.000000 -176.196000 -7.006800 -1.558050 39.081100 -0.000007 -0.000012 -0.061445 0.196760 17.342600 40.985400 -0.000006 -0.000013 -0.748599 4.279980 -63.298500 11.754300 -0.000000 0.000003 -0.000001 -0.000017 -16.578200 -2.192510 6.469440 -0.000001 179.911000 10.622000 -179.959000 -39.081100 -0.002282 -0.040193 -0.051924 0.203000 15.226400 -40.985400 0.000008 0.000006 2.044300 7.306600 -63.102100 -11.754300 -0.000006 -0.000006 -0.005875 -0.069693 -19.409400
